<?xml version="1.0" encoding="UTF-8"?>
<svg xmlns="http://www.w3.org/2000/svg" xmlns:xlink="http://www.w3.org/1999/xlink" width="375pt" height="374.999991pt" viewBox="0 0 375 374.999991" version="1.2">
<defs>
<clipPath id="clip1">
  <path d="M 141 22 L 295 22 L 295 259 L 141 259 Z M 141 22 "/>
</clipPath>
<clipPath id="clip2">
  <path d="M 160.292969 12.15625 L 317.996094 32.40625 L 286.097656 280.863281 L 128.390625 260.617188 Z M 160.292969 12.15625 "/>
</clipPath>
<clipPath id="clip3">
  <path d="M 318.195312 32.429688 L 160.488281 12.183594 L 128.589844 260.644531 L 286.292969 280.890625 Z M 318.195312 32.429688 "/>
</clipPath>
<clipPath id="clip4">
  <path d="M 116 142 L 353 142 L 353 294 L 116 294 Z M 116 142 "/>
</clipPath>
<clipPath id="clip5">
  <path d="M 98.066406 289.652344 L 112.574219 131.316406 L 362.027344 154.171875 L 347.523438 312.507812 Z M 98.066406 289.652344 "/>
</clipPath>
<clipPath id="clip6">
  <path d="M 98.066406 289.652344 L 112.574219 131.316406 L 362.027344 154.171875 L 347.523438 312.507812 Z M 98.066406 289.652344 "/>
</clipPath>
<clipPath id="clip7">
  <path d="M 80 117 L 235 117 L 235 353 L 80 353 Z M 80 117 "/>
</clipPath>
<clipPath id="clip8">
  <path d="M 88.65625 94.417969 L 246.359375 114.667969 L 214.460938 363.128906 L 56.753906 342.878906 Z M 88.65625 94.417969 "/>
</clipPath>
<clipPath id="clip9">
  <path d="M 88.65625 94.417969 L 246.359375 114.667969 L 214.460938 363.128906 L 56.753906 342.878906 Z M 88.65625 94.417969 "/>
</clipPath>
<clipPath id="clip10">
  <path d="M 22 81 L 260 81 L 260 233 L 22 233 Z M 22 81 "/>
</clipPath>
<clipPath id="clip11">
  <path d="M 13.257812 221.050781 L 27.765625 62.714844 L 277.21875 85.570312 L 262.710938 243.90625 Z M 13.257812 221.050781 "/>
</clipPath>
<clipPath id="clip12">
  <path d="M 27.78125 62.515625 L 13.273438 220.851562 L 262.730469 243.707031 L 277.238281 85.371094 Z M 27.78125 62.515625 "/>
</clipPath>
</defs>
<g id="surface1">
<rect x="0" y="0" width="375" height="374.999991" style="fill:rgb(100%,100%,100%);fill-opacity:1;stroke:none;"/>
<rect x="0" y="0" width="375" height="374.999991" style="fill:rgb(100%,100%,100%);fill-opacity:1;stroke:none;"/>
<rect x="0" y="0" width="375" height="374.999991" style="fill:rgb(100%,100%,100%);fill-opacity:1;stroke:none;"/>
<g clip-path="url(#clip1)" clip-rule="nonzero">
<g clip-path="url(#clip2)" clip-rule="nonzero">
<g clip-path="url(#clip3)" clip-rule="nonzero">
<path style=" stroke:none;fill-rule:nonzero;fill:rgb(0.389099%,43.139648%,77.249146%);fill-opacity:1;" d="M 162.148438 258.230469 L 294.210938 155.953125 L 191.5625 22.71875 L 164.519531 43.652344 L 246.300781 149.800781 L 141.28125 231.132812 L 162.148438 258.226562 "/>
</g>
</g>
</g>
<g clip-path="url(#clip4)" clip-rule="nonzero">
<g clip-path="url(#clip5)" clip-rule="nonzero">
<g clip-path="url(#clip6)" clip-rule="nonzero">
<path style=" stroke:none;fill-rule:nonzero;fill:rgb(100%,32.939148%,0%);fill-opacity:1;" d="M 352.378906 186.40625 L 223.847656 293.085938 L 116.105469 163.9375 L 142.417969 142.089844 L 228.257812 244.980469 L 330.464844 160.148438 L 352.378906 186.40625 "/>
</g>
</g>
</g>
<g clip-path="url(#clip7)" clip-rule="nonzero">
<g clip-path="url(#clip8)" clip-rule="nonzero">
<g clip-path="url(#clip9)" clip-rule="nonzero">
<path style=" stroke:none;fill-rule:nonzero;fill:rgb(100%,0%,56.858826%);fill-opacity:1;" d="M 182.597656 352.316406 L 80.65625 219.996094 L 213.632812 117.011719 L 234.507812 144.101562 L 128.566406 226.144531 L 209.636719 331.367188 L 182.597656 352.3125 "/>
</g>
</g>
</g>
<g clip-path="url(#clip10)" clip-rule="nonzero">
<g clip-path="url(#clip11)" clip-rule="nonzero">
<g clip-path="url(#clip12)" clip-rule="nonzero">
<path style=" stroke:none;fill-rule:nonzero;fill:rgb(100%,79.998779%,0%);fill-opacity:1;" d="M 259.097656 210.257812 L 152.09375 81.996094 L 22.675781 189.417969 L 44.578125 215.679688 L 147.6875 130.101562 L 232.777344 232.097656 L 259.097656 210.257812 "/>
</g>
</g>
</g>
</g>
</svg>
